# Blender 4.3.2
# www.blender.org
o Plan
v -0.993566 -0.499990 1.315099
v 0.993566 -0.499990 1.315099
v -0.993566 0.493577 -1.315099
v 0.993566 0.493577 -1.315099
v -0.968906 -0.500000 1.323614
v 1.000000 -0.489501 1.052118
v 1.000000 -0.476035 0.913760
v 1.000000 -0.467944 0.849606
v 1.000000 -0.455596 0.765680
v 1.000000 -0.403138 0.499702
v 1.000000 -0.387275 0.434796
v 1.000000 -0.378637 0.401332
v 1.000000 -0.361404 0.338043
v 1.000000 -0.317250 0.191905
v 1.000000 -0.298681 0.135823
v 1.000000 -0.262321 0.033012
v 1.000000 -0.173476 -0.189141
v 1.000000 -0.084587 -0.382605
v 1.000000 -0.068259 -0.415834
v 1.000000 0.018913 -0.583352
v 1.000000 0.054617 -0.647874
v 1.000000 0.257260 -0.980069
v 1.000000 0.386899 -1.169444
v 0.999940 0.470043 -1.283671
v 0.960783 0.500000 -1.323615
v -0.960783 0.500000 -1.323615
v -0.999940 -0.499774 1.283690
v -1.000000 -0.499048 1.240868
v -1.000000 0.369180 -1.144453
v -1.000000 -0.112698 -0.323896
v -1.000000 0.051594 -0.642476
v -1.000000 -0.332337 0.239637
v -1.000000 -0.494680 1.130299
v -1.000000 -0.349614 0.296984
v -1.000000 0.171487 -0.845652
v -1.000000 -0.181915 -0.169430
v -1.000000 0.215145 -0.915057
v -1.000000 -0.064241 -0.423965
v 1.000000 0.114801 -0.752082
v -1.000000 -0.276847 0.073032
v 1.000000 0.202745 -0.895581
v -1.000000 0.238636 -0.951530
v 1.000000 -0.496799 1.173714
v -1.000000 0.274764 -1.006507
v 0.362735 0.141124 -0.796071
v 1.000000 -0.156867 -0.227080
v -0.999945 0.469848 -1.283418
v -1.000000 0.429508 -1.228643
v 1.000000 -0.193220 -0.142673
v -0.999182 -0.499896 1.296587
v -0.997242 -0.499963 1.306992
v 0.979575 -0.500000 1.322534
v 0.987439 -0.499998 1.319965
v -0.970486 0.499898 -1.323480
v -0.979575 0.499183 -1.322534
v -0.987439 0.497245 -1.319965
v -0.997242 0.487479 -1.306992
v -1.000000 0.322224 -1.076834
v -1.000000 0.292784 -1.033445
v -1.000000 0.256387 -0.978703
v -1.000000 0.193785 -0.881388
v -1.000000 0.154841 -0.818602
v -1.000000 0.127302 -0.773099
v -1.000000 0.096095 -0.720297
v -1.000000 -0.039389 -0.473027
v -1.000000 -0.096604 -0.357747
v -1.000000 -0.145067 -0.253559
v -1.000000 -0.168454 -0.200673
v -1.000000 -0.197724 -0.131864
v -1.000000 -0.214126 -0.091816
v -1.000000 -0.230049 -0.051863
v -1.000000 -0.256753 0.017984
v -1.000000 -0.307874 0.163204
v -1.000000 -0.340777 0.267280
v -1.000000 -0.370332 0.370340
v -1.000000 -0.394757 0.464774
v -1.000000 -0.408749 0.523908
v -1.000000 -0.423269 0.590292
v -1.000000 -0.428749 0.616967
v -1.000000 -0.439749 0.673740
v -1.000000 -0.451812 0.742380
v -1.000000 -0.460733 0.799004
v -1.000000 -0.468472 0.853413
v -1.000000 -0.473640 0.893679
v -1.000000 -0.477605 0.927403
v -1.000000 -0.480477 0.953679
v -1.000000 -0.484234 0.990951
v -1.000000 -0.487824 1.031430
v -1.000000 -0.490383 1.063752
v -1.000000 -0.496257 1.161524
v -1.000000 -0.497641 1.194625
v -0.987439 -0.499998 1.319965
v -0.979575 -0.500000 1.322534
v 0.968914 -0.500000 1.323614
v 0.987439 0.497245 -1.319965
v 0.979575 0.499183 -1.322534
v 0.970486 0.499898 -1.323480
v -0.999182 0.479685 -1.296585
v -1.000000 -0.361017 0.336646
v 1.000000 -0.234916 -0.039397
v 1.000000 0.408972 -1.200263
v -1.000000 0.069938 -0.674919
v -1.000000 -0.291666 0.115282
v 1.000000 -0.043436 -0.465141
v 1.000000 -0.025639 -0.499646
v -1.000000 0.008619 -0.564371
v 1.000000 -0.352012 0.305228
v 1.000000 0.092242 -0.713646
v -1.000000 -0.416710 0.559565
v 1.000000 -0.396073 0.470144
v -1.000000 -0.384295 0.423039
v 1.000000 -0.342038 0.271429
v -1.000000 -0.320393 0.201700
v 1.000000 -0.287424 0.103030
v 1.000000 -0.206721 -0.110014
v 1.000000 0.358323 -1.128955
v 1.000000 -0.499010 1.240088
v 1.000000 -0.495389 1.143553
v -1.000000 -0.492623 1.096144
v 1.000000 -0.472414 0.883799
v 1.000000 -0.370072 0.369387
v -1.000000 -0.245784 -0.011155
v 1.000000 -0.219383 -0.078743
v 1.000000 0.037634 -0.617439
v 1.000000 0.331173 -1.089866
v -1.000000 -0.433845 0.642699
v 1.000000 -0.443705 0.695368
v 1.000008 -0.499562 1.267861
v 1.000000 -0.120899 -0.306334
v 1.000000 0.180391 -0.859981
v 1.000000 0.296259 -1.038631
v 0.999183 0.479678 -1.296582
v -0.314295 -0.457713 0.779145
v 1.000000 -0.434796 0.647560
v 1.000000 -0.410808 0.532936
v 1.000000 -0.329648 0.230962
v 1.000000 -0.139850 -0.265110
v 1.000000 -0.483090 0.979310
v 1.000000 -0.479705 0.946303
v 1.000000 -0.450289 0.733354
v 1.000000 -0.417906 0.565104
v 1.000000 -0.307929 0.163423
v 1.000000 -0.003471 -0.541798
v 1.000000 -0.498113 1.208079
v 1.000000 -0.249347 -0.001771
v 1.000000 -0.486102 1.011383
v 1.000000 -0.425645 0.601626
v 1.000000 -0.104129 -0.342037
v 1.000000 0.151719 -0.813519
v 1.000000 0.074233 -0.682416
v 1.000000 0.224082 -0.929006
v 0.999898 -0.499782 1.284551
v 0.997243 0.487477 -1.306989
v 0.997242 -0.499962 1.306991
v 0.999183 -0.499896 1.296580
v 1.000000 0.440685 -1.243935
v -1.000000 -0.012813 -0.524152
v -1.000000 -0.445866 0.707660
v -1.000000 -0.128128 -0.290719
v -1.000000 0.028724 -0.601284
v 1.000000 -0.273396 0.063413
v -0.010651 0.441966 -1.245676
v 1.000000 -0.492778 1.098139
v 1.000000 -0.463026 0.814419
vn 0.0002 0.7997 0.6004
vn 0.0016 0.7995 0.6006
vn 0.0007 0.7992 0.6011
vn 0.0003 0.7990 0.6013
vn 0.0001 0.7988 0.6016
vn -0.0000 0.7988 0.6016
vn -0.0000 0.8009 0.5988
vn -0.0002 0.7998 0.6002
vn -0.0000 0.8008 0.5989
vn -0.0000 0.8029 0.5961
vn -0.0000 0.8032 0.5957
vn -0.0000 0.9671 0.2545
vn -0.0000 0.9653 0.2613
vn -0.0000 0.9683 0.2496
vn -0.0000 0.8749 0.4843
vn -0.0000 0.8724 0.4888
vn -0.0000 0.8762 0.4819
vn -0.0000 0.9999 0.0165
vn -0.0000 0.9997 0.0237
vn -0.0000 0.9999 0.0133
vn -0.0000 0.9895 0.1446
vn 0.0001 0.9890 0.1482
vn -0.0000 0.9910 0.1340
vn -0.0000 0.9547 0.2977
vn -0.0000 0.9524 0.3048
vn -0.0000 0.9551 0.2962
vn -0.0000 0.9383 0.3459
vn -0.0000 0.9376 0.3476
vn -0.0000 0.9415 0.3369
vn -0.0000 0.8992 0.4375
vn -0.0000 0.8953 0.4455
vn -0.0000 0.9008 0.4342
vn -0.0000 0.8294 0.5587
vn -0.0000 0.8245 0.5659
vn -0.0000 0.8293 0.5587
vn -0.0000 0.8056 0.5924
vn 0.0001 0.8090 0.5878
vn -0.0000 0.9030 0.4296
vn -0.0000 0.9049 0.4255
vn -0.0000 0.9069 0.4214
vn -0.0000 0.9995 0.0331
vn -0.0000 0.9993 0.0361
vn -0.0000 0.9842 0.1770
vn -0.0000 0.9833 0.1822
vn -0.0000 0.9849 0.1731
vn -0.0000 0.9649 0.2628
vn -0.0000 0.9625 0.2714
vn -0.0000 0.9603 0.2791
vn -0.0000 0.9598 0.2807
vn -0.0000 0.9577 0.2879
vn -0.0000 0.9575 0.2886
vn -0.0000 0.9470 0.3212
vn -0.0000 0.9455 0.3257
vn -0.0000 0.9491 0.3148
vn -0.0000 0.9319 0.3627
vn -0.0000 0.9309 0.3654
vn -0.0000 0.9343 0.3564
vn -0.0000 0.9755 0.2202
vn -0.0000 0.9746 0.2241
vn -0.0000 0.9770 0.2133
vn -0.0000 0.9107 0.4131
vn -0.0000 0.9083 0.4182
vn -0.0000 0.9123 0.4096
vn -0.0000 0.9353 0.3538
vn -0.0000 0.8714 0.4905
vn -0.0000 0.8684 0.4958
vn -0.0000 0.8785 0.4778
vn -0.0000 0.8804 0.4743
vn -0.0000 0.9182 0.3961
vn -0.0000 0.9144 0.4047
vn -0.0000 0.9165 0.4001
vn -0.0000 0.8490 0.5285
vn -0.0000 0.8464 0.5325
vn -0.0000 0.8500 0.5267
vn -0.0000 0.8354 0.5496
vn -0.0000 0.8327 0.5537
vn -0.0000 0.8357 0.5492
vn -0.0000 0.9877 0.1564
vn 0.0001 0.9867 0.1623
vn -0.0000 0.9881 0.1538
vn -0.0000 0.9201 0.3918
vn -0.0000 0.9997 0.0239
vn -0.0000 0.9795 0.2013
vn -0.0000 0.9788 0.2050
vn -0.0000 0.9952 0.0978
vn -0.0000 0.9945 0.1045
vn -0.0000 0.9955 0.0943
vn -0.0000 0.9819 0.1893
vn -0.0000 0.9803 0.1977
vn -0.0000 0.9817 0.1906
vn -0.0001 0.8598 0.5106
vn -0.0000 0.8562 0.5167
vn -0.0000 0.8582 0.5133
vn -0.0000 0.9735 0.2287
vn -0.0000 0.9961 0.0883
vn -0.0000 0.9693 0.2457
vn -0.0000 0.9626 0.2709
vn -0.0000 0.8679 0.4967
vn -0.0000 0.8644 0.5029
vn -0.0000 0.8449 0.5349
vn -0.0000 0.8407 0.5415
vn -0.0000 0.8426 0.5386
vn -0.0000 0.9973 0.0740
vn -0.0000 0.9970 0.0771
vn -0.0000 0.9965 0.0836
vn -0.0000 0.9943 0.1070
vn -0.0000 0.9932 0.1160
vn -0.0000 0.9936 0.1127
vn 0.0002 1.0000 0.0050
vn -0.0000 1.0000 0.0081
vn -0.0002 1.0000 0.0050
vn -0.0000 0.9861 0.1664
vn -0.0000 1.0000 0.0023
vn -0.0000 0.9991 0.0425
vn -0.0000 0.9979 0.0642
vn -0.0000 0.9979 0.0646
vn -0.0000 0.9922 0.1248
vn -0.0000 0.9774 0.2114
vn -0.0000 0.9493 0.3144
vn -0.0000 0.8910 0.4541
vn -0.0000 0.8869 0.4619
vn -0.0000 0.8897 0.4566
vn -0.0000 0.9986 0.0520
vn -0.0000 0.9985 0.0553
vn -0.0000 0.9715 0.2370
vn -0.0000 0.9716 0.2367
vn -0.0001 0.8541 0.5202
vn -0.0000 0.8536 0.5210
vn -0.0000 0.8067 0.5909
vn -0.0000 0.9999 0.0114
vn -0.0000 0.8390 0.5442
vn 0.0004 1.0000 0.0028
vn 0.0010 1.0000 0.0035
vn 0.0022 1.0000 0.0044
vn -0.0000 0.7988 0.6017
vn -0.0001 0.7988 0.6016
vn -0.0003 0.7990 0.6013
vn -0.0006 0.7992 0.6011
vn -0.0016 0.7995 0.6007
vn -0.0021 1.0000 0.0044
vn -0.0010 1.0000 0.0035
vn -0.0004 1.0000 0.0028
vn 0.0001 0.8171 0.5764
vn -0.0000 0.8150 0.5795
vn -0.0000 0.9411 0.3380
vn -0.0000 0.8954 0.4453
vn -0.0000 0.8849 0.4658
vn -0.0000 0.8238 0.5668
vn -0.0000 0.8192 0.5735
vn -0.0000 0.8111 0.5849
vn -0.0000 0.9285 0.3713
vn -0.0000 0.9272 0.3746
vn -0.0000 0.9255 0.3787
vn -0.0000 0.9236 0.3835
vn -0.0000 0.9925 0.1220
vn -0.0000 0.9223 0.3865
vn -0.0000 0.8636 0.5041
vn -0.0000 0.9442 0.3292
vn -0.0000 0.9518 0.3068
vn -0.0000 0.9989 0.0461
vn -0.0000 0.8827 0.4699
vn -0.0000 1.0000 0.0080
vt 1.000000 0.995098
vt 1.000000 1.000000
vt 0.995098 1.000000
vt 0.990196 1.000000
vt 0.985294 1.000000
vt 0.980392 1.000000
vt 1.000000 0.990196
vt 0.000001 0.995098
vt 0.000000 0.990196
vt 1.000000 0.984956
vt -0.000001 0.984938
vt 1.000000 0.348392
vt 0.000000 0.360100
vt 0.000000 0.340191
vt 1.000000 0.733236
vt -0.000000 0.742831
vt -0.000003 0.726690
vt 1.000000 0.021063
vt 0.000000 0.031259
vt 0.000000 0.015036
vt 1.000000 0.192476
vt -0.000000 0.197945
vt -0.000000 0.177580
vt 1.000000 0.412750
vt 0.000000 0.423808
vt 0.000000 0.409474
vt 1.000000 0.487527
vt 0.000000 0.493205
vt 0.000000 0.472405
vt 1.000000 0.644528
vt -0.000000 0.660143
vt -0.000000 0.635139
vt 1.000000 0.892337
vt 0.000000 0.906774
vt 0.000000 0.890392
vt 0.501636 0.974775
vt 0.000060 0.963378
vt 1.000000 0.629198
vt -0.000000 0.622271
vt 0.999945 0.615883
vt 1.000000 0.043635
vt -0.000000 0.048714
vt 1.000000 0.237283
vt 0.000000 0.245490
vt -0.000000 0.232725
vt 1.000000 0.360460
vt -0.000000 0.372680
vt 1.000000 0.384543
vt -0.000000 0.387836
vt 1.000000 0.397463
vt 0.000000 0.399032
vt 1.000000 0.448531
vt 0.000000 0.456448
vt 0.000003 0.438653
vt 1.000000 0.514877
vt 0.000000 0.519586
vt 0.000000 0.504210
vt 1.000000 0.298679
vt -0.000000 0.302090
vt 0.000000 0.288621
vt 1.000000 0.600233
vt -0.000000 0.609973
vt -0.000000 0.595774
vt 1.000000 0.500666
vt 1.000000 0.744666
vt 0.000031 0.756151
vt 0.999878 0.722862
vt 0.000251 0.713214
vt 1.000000 0.571441
vt 1.000000 0.585778
vt 0.000000 0.575803
vt 0.999979 0.824291
vt 0.000088 0.833399
vt -0.000000 0.819419
vt 0.999981 0.870404
vt -0.000000 0.880103
vt -0.000000 0.869885
vt 0.999976 0.211830
vt -0.000000 0.219511
vt 0.362826 0.202501
vt -0.000000 0.563999
vt 1.000000 0.031550
vt 1.000000 0.272689
vt -0.000000 0.276736
vt 1.000000 0.130037
vt -0.000000 0.139808
vt -0.000000 0.125661
vt 1.000000 0.255381
vt -0.000000 0.267105
vt 0.000000 0.257218
vt 0.999992 0.783527
vt 0.681296 0.797349
vt -0.000001 0.792310
vt 1.000000 0.311236
vt 1.000000 0.117946
vt 1.000000 0.179031
vt 1.000000 0.335755
vt 1.000000 0.372269
vt 1.000000 0.757709
vt 0.999880 0.766694
vt 0.999986 0.838471
vt 1.000000 0.850575
vt -0.000000 0.845692
vt -0.000000 0.098195
vt 1.000000 0.102580
vt -0.000000 0.110343
vt 1.000000 0.142591
vt 1.000000 0.154798
vt -0.000000 0.149654
vt 1.000000 0.004902
vt 0.000001 0.009804
vt 0.000001 0.004902
vt 1.000000 0.223018
vt 0.984499 0.000000
vt 0.015505 0.000000
vt 1.000000 0.056625
vt 1.000000 0.085156
vt -0.000000 0.085889
vt 1.000000 0.166163
vt 1.000000 0.286529
vt 1.000000 0.438229
vt 1.000000 0.675703
vt 1.000000 0.688741
vt 0.000000 0.678686
vt 1.000000 0.068012
vt -0.000000 0.073026
vt 1.000000 0.322399
vt -0.000000 0.324425
vt 0.999873 0.806239
vt 0.000062 0.806428
vt 0.999861 0.970200
vt 1.000000 0.014706
vt 0.000000 0.859431
vt 0.990196 0.000000
vt 0.995098 0.000000
vt 1.000000 0.000000
vt 0.019608 1.000000
vt 0.014706 1.000000
vt 0.009804 1.000000
vt 0.004902 1.000000
vt 0.000000 1.000000
vt 0.000000 0.000000
vt 0.004902 0.000000
vt 0.009804 0.000000
vt 0.000000 0.932303
vt 1.000000 0.941755
vt 1.000000 0.476042
vt 1.000000 0.657078
vt 0.000000 0.697893
vt 1.000000 0.911690
vt 1.000000 0.926460
vt 1.000000 0.953403
vt 1.000000 0.529742
vt 0.000000 0.534744
vt 0.999988 0.540549
vt -0.000000 0.549775
vt -0.000000 0.162461
vt 1.000000 0.553730
vt -0.000000 0.772011
vt 1.000000 0.461076
vt 1.000000 0.427505
vt -0.000000 0.061244
vt 0.999979 0.703998
vt 1.000000 0.009804
s 1
f 153/1/1 4/2/2 95/3/3
f 153/1/1 95/3/3 96/4/4
f 153/1/1 96/4/4 97/5/5
f 153/1/1 97/5/5 25/6/6
f 132/7/7 57/8/8 98/9/9
f 24/10/10 132/7/7 47/11/11
f 153/1/1 25/6/6 57/8/8
f 12/12/12 75/13/13 111/14/14
f 124/15/15 31/16/16 160/17/17
f 128/18/18 28/19/19 27/20/20
f 164/21/21 82/22/22 83/23/23
f 136/24/24 113/25/25 32/26/26
f 16/27/27 72/28/28 40/29/29
f 18/30/30 38/31/31 66/32/32
f 131/33/33 58/34/34 59/35/35
f 162/36/36 47/11/11 48/37/37
f 148/38/38 66/32/32 30/39/39
f 129/40/40 148/38/38 30/39/39
f 144/41/41 91/42/42 28/19/19
f 127/43/43 80/44/44 158/45/45
f 121/46/46 99/47/47 75/13/13
f 99/47/47 107/48/48 34/49/49
f 112/50/50 32/26/26 74/51/51
f 15/52/52 103/53/53 73/54/54
f 100/55/55 71/56/56 122/57/57
f 135/58/58 77/59/59 109/60/60
f 137/61/61 159/62/62 67/63/63
f 145/64/64 100/55/55 122/57/57
f 21/65/65 102/66/66 31/16/16
f 20/67/67 160/17/17 106/68/68
f 17/69/69 46/70/70 68/71/71
f 130/72/72 61/73/73 35/74/74
f 22/75/75 44/76/76 60/77/77
f 9/78/78 81/79/79 133/80/80
f 17/69/69 68/71/71 36/81/81
f 128/18/18 117/82/82 28/19/19
f 147/83/83 109/60/60 78/84/84
f 138/85/85 86/86/86 87/87/87
f 134/88/88 79/89/89 126/90/90
f 39/91/91 45/92/92 63/93/93
f 135/58/58 10/94/94 77/59/59
f 112/50/50 74/51/51 34/49/49
f 148/38/38 18/30/30 66/32/32
f 146/95/95 138/85/85 87/87/87
f 8/96/23 164/21/21 83/23/23
f 11/97/96 12/12/12 111/14/14
f 13/98/97 107/48/48 99/47/47
f 107/48/48 112/50/50 34/49/49
f 150/99/98 108/100/99 102/66/66
f 41/101/100 151/102/101 37/103/102
f 89/104/103 6/105/104 88/106/105
f 139/107/106 7/108/107 85/109/108
f 137/61/61 129/40/40 159/62/62
f 154/110/109 50/111/110 51/112/111
f 140/113/112 127/43/43 81/79/79
f 130/72/72 41/101/100 61/73/73
f 94/114/113 154/110/109 5/115/113
f 117/82/82 144/41/41 28/19/19
f 144/41/41 43/116/114 91/42/42
f 163/117/115 6/105/104 89/104/103
f 163/117/115 89/104/103 119/118/116
f 120/119/117 8/96/23 83/23/23
f 141/120/118 135/58/58 109/60/60
f 142/121/119 15/52/52 73/54/54
f 104/122/120 105/123/121 65/124/122
f 164/21/21 133/80/80 82/22/22
f 118/125/123 163/117/115 33/126/124
f 110/127/125 11/97/96 76/128/126
f 149/129/127 35/74/74 62/130/128
f 20/67/67 124/15/15 160/17/17
f 156/131/129 47/11/11 162/36/36
f 152/132/130 128/18/18 27/20/20
f 22/75/75 131/33/33 44/76/76
f 149/129/127 130/72/72 35/74/74
f 151/102/101 22/75/75 42/133/131
f 52/134/132 154/110/109 94/114/113
f 53/135/133 154/110/109 52/134/132
f 2/136/134 154/110/109 53/135/133
f 57/8/8 26/137/135 54/138/136
f 57/8/8 54/138/136 55/139/137
f 57/8/8 55/139/137 56/140/138
f 57/8/8 56/140/138 3/141/139
f 47/11/11 132/7/7 98/9/9
f 57/8/8 25/6/6 26/137/135
f 132/7/7 153/1/1 57/8/8
f 1/142/140 92/143/141 51/112/111
f 92/143/141 93/144/142 51/112/111
f 93/144/142 5/115/113 51/112/111
f 82/22/22 133/80/80 81/79/79
f 38/31/31 104/122/120 65/124/122
f 29/145/143 23/146/144 48/37/37
f 77/59/59 10/94/94 76/128/126
f 161/147/145 16/27/27 40/29/29
f 68/71/71 46/70/70 67/63/63
f 18/30/30 19/148/146 38/31/31
f 65/124/122 105/123/121 157/149/147
f 125/150/148 116/151/149 29/145/143
f 58/34/34 125/150/148 29/145/143
f 23/146/144 101/152/150 48/37/37
f 10/94/94 110/127/125 76/128/126
f 37/103/102 151/102/101 42/133/131
f 159/62/62 129/40/40 30/39/39
f 71/56/56 123/153/151 70/154/152
f 70/154/152 115/155/153 69/156/154
f 88/106/105 146/95/95 87/87/87
f 85/109/108 7/108/107 84/157/155
f 7/108/107 120/119/117 84/157/155
f 115/155/153 49/158/156 69/156/154
f 124/15/15 21/65/65 31/16/16
f 64/159/157 39/91/91 63/93/93
f 33/126/124 163/117/115 119/118/116
f 103/53/53 114/160/158 40/29/29
f 69/156/154 49/158/156 36/81/81
f 63/93/93 45/92/92 62/130/128
f 81/79/79 127/43/43 158/45/45
f 113/25/25 14/161/159 73/54/54
f 14/161/159 142/121/119 73/54/54
f 91/42/42 43/116/114 90/162/160
f 90/162/160 118/125/123 33/126/124
f 43/116/114 118/125/123 90/162/160
f 121/46/46 13/98/97 99/47/47
f 12/12/12 121/46/46 75/13/13
f 70/154/152 123/153/151 115/155/153
f 102/66/66 108/100/99 64/159/157
f 86/86/86 139/107/106 85/109/108
f 46/70/70 137/61/61 67/63/63
f 108/100/99 39/91/91 64/159/157
f 44/76/76 131/33/33 59/35/35
f 157/149/147 143/163/161 106/68/68
f 106/68/68 143/163/161 20/67/67
f 42/133/131 22/75/75 60/77/77
f 116/151/149 23/146/144 29/145/143
f 76/128/126 11/97/96 111/14/14
f 15/52/52 114/160/158 103/53/53
f 147/83/83 141/120/118 109/60/60
f 61/73/73 41/101/100 37/103/102
f 114/160/158 161/147/145 40/29/29
f 5/115/113 154/110/109 51/112/111
f 6/105/104 146/95/95 88/106/105
f 9/78/78 140/113/112 81/79/79
f 100/55/55 123/153/151 71/56/56
f 49/158/156 17/69/69 36/81/81
f 84/157/155 120/119/117 83/23/23
f 79/89/89 147/83/83 78/84/84
f 138/85/85 139/107/106 86/86/86
f 80/44/44 134/88/88 126/90/90
f 72/28/28 145/64/64 122/57/57
f 133/80/80 164/21/21 9/78/78
f 112/50/50 136/24/24 32/26/26
f 16/27/27 145/64/64 72/28/28
f 127/43/43 134/88/88 80/44/44
f 21/65/65 150/99/98 102/66/66
f 134/88/88 147/83/83 79/89/89
f 45/92/92 149/129/127 62/130/128
f 136/24/24 14/161/159 113/25/25
f 105/123/121 143/163/161 157/149/147
f 48/37/37 156/131/129 162/36/36
f 156/131/129 24/10/10 47/11/11
f 50/111/110 152/132/130 27/20/20
f 154/110/109 155/164/162 50/111/110
f 50/111/110 155/164/162 152/132/130
f 38/31/31 19/148/146 104/122/120
f 131/33/33 125/150/148 58/34/34
f 101/152/150 156/131/129 48/37/37
f 39/91/91 149/129/127 45/92/92
