# Blender 4.3.2
# www.blender.org
mtllib paper.mtl
o paper
v 4.128544 -0.130565 2.747427
v 4.113270 -0.130565 2.187313
v 4.117196 -0.130565 1.625662
v 4.106979 -0.194158 1.067056
v 4.112777 -0.194158 0.505569
v 4.104426 -0.194158 -0.053942
v 4.120570 -0.194158 -0.613452
v 4.136713 -0.194158 -1.172963
v 4.131894 -0.194158 -1.734307
v 4.125937 -0.115260 -2.295751
v 4.119446 -0.115260 -2.855099
v 3.372423 -0.130565 2.741618
v 3.357148 -0.130565 2.181501
v 3.361074 -0.194158 1.619850
v 3.350857 -0.194158 1.061248
v 3.356656 -0.194158 0.499761
v 3.348306 -0.194158 -0.059750
v 3.364448 -0.194158 -0.619260
v 3.380592 -0.194158 -1.178774
v 3.382725 -0.194158 -1.739506
v 3.400735 -0.194158 -2.298857
v 3.394242 -0.194158 -2.858206
v 2.614031 -0.194158 2.761770
v 2.598756 -0.194158 2.201653
v 2.602682 -0.194158 1.640003
v 2.592465 -0.194158 1.081400
v 2.598261 -0.194158 0.519913
v 2.589912 -0.194158 -0.039597
v 2.606055 -0.194158 -0.599108
v 2.622200 -0.194158 -1.158618
v 2.624334 -0.194158 -1.719354
v 2.642342 -0.194158 -2.278702
v 2.635850 -0.194158 -2.838049
v 1.857075 -0.194158 2.765500
v 1.841801 -0.194158 2.205381
v 1.845725 -0.194158 1.643728
v 1.835509 -0.194158 1.085126
v 1.841306 -0.161006 0.523639
v 1.832958 -0.161006 -0.035871
v 1.849101 -0.176809 -0.595382
v 1.865243 -0.176809 -1.154892
v 1.867377 -0.194158 -1.715628
v 1.885387 -0.194158 -2.274976
v 1.878893 -0.194158 -2.834324
v 1.100807 -0.194158 2.761372
v 1.085531 -0.194158 2.201255
v 1.089457 -0.194158 1.639605
v 1.079241 -0.194158 1.081002
v 1.085038 -0.194158 0.519515
v 1.076687 -0.194158 -0.039995
v 1.092831 -0.194158 -0.599510
v 1.108974 -0.194158 -1.159016
v 1.111109 -0.194158 -1.719756
v 1.129119 -0.194158 -2.279103
v 1.122625 -0.194158 -2.838451
v 0.342606 -0.194158 2.779334
v 0.327330 -0.194158 2.219215
v 0.331257 -0.194158 1.657565
v 0.321041 -0.194158 1.098962
v 0.326836 -0.194158 0.537475
v 0.318487 -0.194158 -0.022036
v 0.334630 -0.194158 -0.581546
v 0.350774 -0.194158 -1.141056
v 0.352908 -0.194158 -1.701792
v 0.370917 -0.194158 -2.261140
v 0.364424 -0.219695 -2.820488
v -0.415596 -0.194157 2.797293
v -0.430870 -0.194158 2.237177
v -0.426946 -0.194158 1.675524
v -0.437162 -0.194158 1.116922
v -0.431365 -0.138402 0.555435
v -0.439713 -0.138402 -0.004076
v -0.423570 -0.194158 -0.563586
v -0.407428 -0.194158 -1.123097
v -0.405294 -0.194158 -1.683833
v -0.387284 -0.194158 -2.243180
v -0.393776 -0.219695 -2.802528
v -1.172001 -0.194157 2.794737
v -1.187276 -0.194158 2.234621
v -1.183351 -0.138402 1.672970
v -1.193567 -0.138402 1.114367
v -1.187770 -0.138402 0.552880
v -1.196119 -0.138402 -0.006634
v -1.179976 -0.194158 -0.566141
v -1.163833 -0.194158 -1.125655
v -1.161700 -0.194158 -1.686391
v -1.143689 -0.194158 -2.245738
v -1.150183 -0.219695 -2.805086
v -1.928607 -0.194157 2.794448
v -1.943882 -0.194158 2.234331
v -1.939955 -0.194158 1.672681
v -1.950171 -0.194158 1.114078
v -1.944374 -0.194158 0.552591
v -1.952725 -0.194158 -0.006919
v -1.936581 -0.194158 -0.566430
v -1.920438 -0.194158 -1.125940
v -1.918306 -0.194158 -1.686677
v -1.900295 -0.194158 -2.246024
v -1.906787 -0.194158 -2.805372
v -2.684845 -0.125314 2.789977
v -2.700119 -0.125314 2.229861
v -2.696193 -0.125314 1.668208
v -2.706410 -0.125314 1.109606
v -2.700613 -0.194158 0.548119
v -2.708962 -0.194158 -0.011392
v -2.692819 -0.194158 -0.570902
v -2.676675 -0.194158 -1.130413
v -2.674543 -0.194158 -1.691149
v -2.656533 -0.160951 -2.250496
v -2.663025 -0.160951 -2.809844
v -3.439814 -0.125314 2.771007
v -3.455089 -0.125314 2.210890
v -3.451162 -0.125314 1.649238
v -3.461380 -0.125314 1.090637
v -3.455583 -0.194158 0.529150
v -3.463932 -0.194158 -0.030360
v -3.447790 -0.194158 -0.589875
v -3.431645 -0.160951 -1.149385
v -3.429512 -0.160951 -1.710121
v -3.411502 -0.160951 -2.269469
v -3.417994 -0.160951 -2.828816
vn -0.0000 1.0000 -0.0000
vn -0.0198 0.9994 -0.0272
vn -0.0431 0.9987 -0.0281
vn -0.0401 0.9992 0.0012
vn -0.0415 0.9975 -0.0564
vn -0.0320 0.9986 -0.0429
vn -0.0216 0.9993 -0.0291
vn -0.0099 0.9999 -0.0134
vn -0.0258 0.9991 0.0333
vn -0.0137 0.9997 0.0177
vn -0.0800 0.9961 0.0366
vn -0.0416 0.9990 0.0175
vn -0.1082 0.9941 0.0013
vn -0.0526 0.9986 0.0007
vn -0.0312 0.9994 -0.0139
vn -0.0435 0.9991 0.0011
vn -0.0108 0.9998 -0.0141
vn 0.0056 1.0000 0.0075
vn 0.0163 0.9998 0.0072
vn 0.0195 0.9998 -0.0035
vn 0.0140 0.9999 -0.0030
vn 0.0085 1.0000 -0.0037
vn 0.0028 1.0000 -0.0038
vn 0.0003 0.9999 0.0147
vn 0.0008 0.9999 0.0148
vn -0.0005 1.0000 -0.0070
vn 0.0001 1.0000 -0.0071
vn 0.0002 1.0000 -0.0077
vn -0.0000 1.0000 -0.0078
vn -0.0055 1.0000 0.0073
vn -0.0168 0.9998 0.0073
vn -0.0190 0.9998 -0.0036
vn -0.0141 0.9999 -0.0040
vn -0.0087 1.0000 -0.0040
vn -0.0028 1.0000 -0.0039
vn -0.0044 1.0000 -0.0057
vn -0.0089 0.9999 -0.0116
vn 0.0097 0.9999 0.0128
vn 0.0275 0.9995 0.0124
vn 0.0277 0.9995 -0.0126
vn 0.0089 0.9999 -0.0122
vn -0.0048 0.9998 -0.0168
vn -0.0093 0.9994 -0.0340
vn 0.0092 0.9999 0.0125
vn 0.0270 0.9996 0.0125
vn 0.0377 0.9990 0.0244
vn 0.0376 0.9990 0.0249
vn 0.0271 0.9989 -0.0373
vn 0.0091 0.9993 -0.0373
vn -0.0002 0.9997 -0.0226
vn -0.0005 0.9990 -0.0456
vn 0.0005 0.9997 0.0248
vn 0.0011 0.9997 0.0247
vn -0.0101 0.9999 0.0127
vn -0.0276 0.9995 0.0123
vn -0.0281 0.9989 -0.0375
vn -0.0093 0.9993 -0.0373
vn 0.0042 0.9998 -0.0172
vn 0.0089 0.9994 -0.0338
vn 0.0366 0.9993 0.0121
vn 0.0431 0.9991 -0.0013
vn 0.0169 0.9998 0.0121
vn -0.0016 0.9999 -0.0152
vn -0.0253 0.9996 -0.0157
vn -0.0271 0.9996 -0.0125
vn -0.0094 0.9999 -0.0129
vn 0.0055 1.0000 0.0077
vn 0.0205 0.9998 0.0015
vn 0.0309 0.9995 -0.0113
vn 0.0449 0.9990 -0.0004
vn 0.0482 0.9988 -0.0012
vn 0.0457 0.9990 -0.0003
vn 0.0342 0.9984 -0.0453
vn 0.0119 0.9988 -0.0466
vn 0.0053 1.0000 0.0076
vn 0.0159 0.9998 0.0080
vn 0.0218 0.9996 0.0151
vn 0.0219 0.9996 0.0151
vn 0.0209 0.9998 -0.0003
vn 0.0015 0.9979 -0.0643
vn 0.0016 0.9983 -0.0581
vn 0.0110 0.9998 0.0156
vn 0.0329 0.9993 0.0147
vn 0.0322 0.9994 0.0158
vn 0.0101 0.9998 0.0145
vt 0.000000 0.000000
vt 0.100000 0.000000
vt 0.100000 0.100000
vt 0.000000 0.100000
vt 0.200000 0.000000
vt 0.200000 0.100000
vt 0.300000 0.000000
vt 0.300000 0.100000
vt 0.400000 0.000000
vt 0.400000 0.100000
vt 0.500000 0.000000
vt 0.500000 0.100000
vt 0.600000 0.000000
vt 0.600000 0.100000
vt 0.700000 0.000000
vt 0.700000 0.100000
vt 0.800000 0.000000
vt 0.800000 0.100000
vt 0.900000 0.000000
vt 0.900000 0.100000
vt 1.000000 0.000000
vt 1.000000 0.100000
vt 0.100000 0.200000
vt 0.000000 0.200000
vt 0.200000 0.200000
vt 0.300000 0.200000
vt 0.400000 0.200000
vt 0.500000 0.200000
vt 0.600000 0.200000
vt 0.700000 0.200000
vt 0.800000 0.200000
vt 0.900000 0.200000
vt 1.000000 0.200000
vt 0.100000 0.300000
vt 0.000000 0.300000
vt 0.200000 0.300000
vt 0.300000 0.300000
vt 0.400000 0.300000
vt 0.500000 0.300000
vt 0.600000 0.300000
vt 0.700000 0.300000
vt 0.800000 0.300000
vt 0.900000 0.300000
vt 1.000000 0.300000
vt 0.100000 0.400000
vt 0.000000 0.400000
vt 0.200000 0.400000
vt 0.300000 0.400000
vt 0.400000 0.400000
vt 0.500000 0.400000
vt 0.600000 0.400000
vt 0.700000 0.400000
vt 0.800000 0.400000
vt 0.900000 0.400000
vt 1.000000 0.400000
vt 0.100000 0.500000
vt 0.000000 0.500000
vt 0.200000 0.500000
vt 0.300000 0.500000
vt 0.400000 0.500000
vt 0.500000 0.500000
vt 0.600000 0.500000
vt 0.700000 0.500000
vt 0.800000 0.500000
vt 0.900000 0.500000
vt 1.000000 0.500000
vt 0.100000 0.600000
vt 0.000000 0.600000
vt 0.200000 0.600000
vt 0.300000 0.600000
vt 0.400000 0.600000
vt 0.500000 0.600000
vt 0.600000 0.600000
vt 0.700000 0.600000
vt 0.800000 0.600000
vt 0.900000 0.600000
vt 1.000000 0.600000
vt 0.100000 0.700000
vt 0.000000 0.700000
vt 0.200000 0.700000
vt 0.300000 0.700000
vt 0.400000 0.700000
vt 0.500000 0.700000
vt 0.600000 0.700000
vt 0.700000 0.700000
vt 0.800000 0.700000
vt 0.900000 0.700000
vt 1.000000 0.700000
vt 0.100000 0.800000
vt 0.000000 0.800000
vt 0.200000 0.800000
vt 0.300000 0.800000
vt 0.400000 0.800000
vt 0.500000 0.800000
vt 0.600000 0.800000
vt 0.700000 0.800000
vt 0.800000 0.800000
vt 0.900000 0.800000
vt 1.000000 0.800000
vt 0.100000 0.900000
vt 0.000000 0.900000
vt 0.200000 0.900000
vt 0.300000 0.900000
vt 0.400000 0.900000
vt 0.500000 0.900000
vt 0.600000 0.900000
vt 0.700000 0.900000
vt 0.800000 0.900000
vt 0.900000 0.900000
vt 1.000000 0.900000
vt 0.100000 1.000000
vt 0.000000 1.000000
vt 0.200000 1.000000
vt 0.300000 1.000000
vt 0.400000 1.000000
vt 0.500000 1.000000
vt 0.600000 1.000000
vt 0.700000 1.000000
vt 0.800000 1.000000
vt 0.900000 1.000000
vt 1.000000 1.000000
s 1
usemtl initialShadingGroup
f 1/1/1 2/2/2 13/3/3 12/4/4
f 2/2/2 3/5/5 14/6/6 13/3/3
f 3/5/5 4/7/7 15/8/8 14/6/6
f 4/7/7 5/9/1 16/10/1 15/8/8
f 5/9/1 6/11/1 17/12/1 16/10/1
f 6/11/1 7/13/1 18/14/1 17/12/1
f 7/13/1 8/15/1 19/16/1 18/14/1
f 8/15/1 9/17/9 20/18/10 19/16/1
f 9/17/9 10/19/11 21/20/12 20/18/10
f 10/19/11 11/21/13 22/22/14 21/20/12
f 12/4/4 13/3/3 24/23/15 23/24/16
f 13/3/3 14/6/6 25/25/17 24/23/15
f 14/6/6 15/8/8 26/26/18 25/25/17
f 15/8/8 16/10/1 27/27/19 26/26/18
f 16/10/1 17/12/1 28/28/20 27/27/19
f 17/12/1 18/14/1 29/29/21 28/28/20
f 18/14/1 19/16/1 30/30/22 29/29/21
f 19/16/1 20/18/10 31/31/23 30/30/22
f 20/18/10 21/20/12 32/32/1 31/31/23
f 21/20/12 22/22/14 33/33/1 32/32/1
f 23/24/16 24/23/15 35/34/1 34/35/1
f 24/23/15 25/25/17 36/36/1 35/34/1
f 25/25/17 26/26/18 37/37/24 36/36/1
f 26/26/18 27/27/19 38/38/25 37/37/24
f 27/27/19 28/28/20 39/39/26 38/38/25
f 28/28/20 29/29/21 40/40/27 39/39/26
f 29/29/21 30/30/22 41/41/28 40/40/27
f 30/30/22 31/31/23 42/42/29 41/41/28
f 31/31/23 32/32/1 43/43/1 42/42/29
f 32/32/1 33/33/1 44/44/1 43/43/1
f 34/35/1 35/34/1 46/45/1 45/46/1
f 35/34/1 36/36/1 47/47/1 46/45/1
f 36/36/1 37/37/24 48/48/30 47/47/1
f 37/37/24 38/38/25 49/49/31 48/48/30
f 38/38/25 39/39/26 50/50/32 49/49/31
f 39/39/26 40/40/27 51/51/33 50/50/32
f 40/40/27 41/41/28 52/52/34 51/51/33
f 41/41/28 42/42/29 53/53/35 52/52/34
f 42/42/29 43/43/1 54/54/36 53/53/35
f 43/43/1 44/44/1 55/55/37 54/54/36
f 45/46/1 46/45/1 57/56/1 56/57/1
f 46/45/1 47/47/1 58/58/1 57/56/1
f 47/47/1 48/48/30 59/59/38 58/58/1
f 48/48/30 49/49/31 60/60/39 59/59/38
f 49/49/31 50/50/32 61/61/40 60/60/39
f 50/50/32 51/51/33 62/62/41 61/61/40
f 51/51/33 52/52/34 63/63/1 62/62/41
f 52/52/34 53/53/35 64/64/1 63/63/1
f 53/53/35 54/54/36 65/65/42 64/64/1
f 54/54/36 55/55/37 66/66/43 65/65/42
f 56/57/1 57/56/1 68/67/44 67/68/1
f 57/56/1 58/58/1 69/69/45 68/67/44
f 58/58/1 59/59/38 70/70/46 69/69/45
f 59/59/38 60/60/39 71/71/47 70/70/46
f 60/60/39 61/61/40 72/72/48 71/71/47
f 61/61/40 62/62/41 73/73/49 72/72/48
f 62/62/41 63/63/1 74/74/1 73/73/49
f 63/63/1 64/64/1 75/75/1 74/74/1
f 64/64/1 65/65/42 76/76/50 75/75/1
f 65/65/42 66/66/43 77/77/51 76/76/50
f 67/68/1 68/67/44 79/78/52 78/79/1
f 68/67/44 69/69/45 80/80/53 79/78/52
f 69/69/45 70/70/46 81/81/54 80/80/53
f 70/70/46 71/71/47 82/82/55 81/81/54
f 71/71/47 72/72/48 83/83/56 82/82/55
f 72/72/48 73/73/49 84/84/57 83/83/56
f 73/73/49 74/74/1 85/85/1 84/84/57
f 74/74/1 75/75/1 86/86/1 85/85/1
f 75/75/1 76/76/50 87/87/58 86/86/1
f 76/76/50 77/77/51 88/88/59 87/87/58
f 78/79/1 79/78/52 90/89/60 89/90/61
f 79/78/52 80/80/53 91/91/62 90/89/60
f 80/80/53 81/81/54 92/92/63 91/91/62
f 81/81/54 82/82/55 93/93/64 92/92/63
f 82/82/55 83/83/56 94/94/65 93/93/64
f 83/83/56 84/84/57 95/95/66 94/94/65
f 84/84/57 85/85/1 96/96/1 95/95/66
f 85/85/1 86/86/1 97/97/67 96/96/1
f 86/86/1 87/87/58 98/98/68 97/97/67
f 87/87/58 88/88/59 99/99/69 98/98/68
f 89/90/61 90/89/60 101/100/70 100/101/71
f 90/89/60 91/91/62 102/102/72 101/100/70
f 91/91/62 92/92/63 103/103/73 102/102/72
f 92/92/63 93/93/64 104/104/74 103/103/73
f 93/93/64 94/94/65 105/105/1 104/104/74
f 94/94/65 95/95/66 106/106/75 105/105/1
f 95/95/66 96/96/1 107/107/76 106/106/75
f 96/96/1 97/97/67 108/108/77 107/107/76
f 97/97/67 98/98/68 109/109/78 108/108/77
f 98/98/68 99/99/69 110/110/79 109/109/78
f 100/101/71 101/100/70 112/111/1 111/112/1
f 101/100/70 102/102/72 113/113/1 112/111/1
f 102/102/72 103/103/73 114/114/80 113/113/1
f 103/103/73 104/104/74 115/115/81 114/114/80
f 104/104/74 105/105/1 116/116/1 115/115/81
f 105/105/1 106/106/75 117/117/82 116/116/1
f 106/106/75 107/107/76 118/118/83 117/117/82
f 107/107/76 108/108/77 119/119/84 118/118/83
f 108/108/77 109/109/78 120/120/85 119/119/84
f 109/109/78 110/110/79 121/121/1 120/120/85
